<!DOCTYPE svg PUBLIC "-//W3C//DTD SVG 1.1//EN" "http://www.w3.org/Graphics/SVG/1.1/DTD/svg11.dtd">
<!-- Uploaded to: SVG Repo, www.svgrepo.com, Transformed by: SVG Repo Mixer Tools -->
<svg version="1.1" id="Layer_1" xmlns="http://www.w3.org/2000/svg" xmlns:xlink="http://www.w3.org/1999/xlink" viewBox="0 0 512.001 512.001" xml:space="preserve" width="800px" height="800px" fill="#000000">
<g id="SVGRepo_bgCarrier" stroke-width="0"/>
<g id="SVGRepo_tracerCarrier" stroke-linecap="round" stroke-linejoin="round"/>
<g id="SVGRepo_iconCarrier"> <path style="fill:#FFCA6C;" d="M414.154,133.889v324.175c-25.007,0-45.273,20.266-45.273,45.273H213.82 c0-25.007-20.279-45.273-45.273-45.273V133.889H414.154z"/> <path style="fill:#E5B05C;" d="M225.858,133.889v369.447H213.82c0-25.007-20.279-45.273-45.273-45.273V133.889H225.858z"/> <path style="fill:#E6E6E6;" d="M168.544,135.419c-10.244-7.725-16.864-19.999-16.864-33.813c0-21.622,16.234-39.439,37.171-41.957 c-0.364-1.833-0.574-3.737-0.574-5.669c0-15.815,12.819-28.62,28.62-28.62c5.626,0,10.832,1.637,15.255,4.436 c7.321-12.637,20.966-21.132,36.612-21.132c8.313,0,16.053,2.394,22.588,6.536c6.536-4.143,14.275-6.536,22.574-6.536 c15.646,0,29.291,8.495,36.612,21.132c4.422-2.799,9.642-4.436,15.255-4.436c15.801,0,28.62,12.805,28.62,28.62 c0,1.932-0.196,3.834-0.574,5.669c20.951,2.52,37.185,20.335,37.185,41.957c0,13.813-6.619,26.087-16.879,33.813"/> <path style="fill:#CCCCCC;" d="M220.729,101.606c0-21.623,16.234-39.439,37.171-41.957c-0.364-1.833-0.574-3.737-0.574-5.669 c0-15.815,12.819-28.62,28.62-28.62c5.626,0,10.832,1.637,15.255,4.436c5.378-9.284,14.177-16.318,24.669-19.404 c-3.788-1.115-7.792-1.728-11.943-1.728c-8.299,0-16.038,2.394-22.574,6.536c-6.536-4.143-14.276-6.536-22.589-6.536 c-15.647,0-29.291,8.495-36.612,21.132c-4.422-2.799-9.629-4.436-15.255-4.436c-15.801,0-28.62,12.805-28.62,28.62 c0,1.932,0.21,3.834,0.574,5.669c-20.937,2.52-37.171,20.335-37.171,41.957c0,13.813,6.619,26.087,16.864,33.812h69.048 C227.348,127.693,220.729,115.419,220.729,101.606z"/> <rect x="168.546" y="135.414" style="fill:#E6E6E6;" width="245.609" height="40.905"/> <rect x="168.546" y="135.414" style="fill:#CCCCCC;" width="57.313" height="40.905"/> <g> <path style="fill:#E6E6E6;" d="M118.764,165.576v178.815c-23.038-10.836-37.797-34.015-37.797-59.545v-75.888 c0-12.088,4.895-23.038,12.829-30.961C100.389,171.39,109.065,166.906,118.764,165.576z"/> </g> <path style="fill:#FFFFFF;" d="M386.26,312.768c-4.786,0-8.664-3.879-8.664-8.664V167.379c0-4.785,3.878-8.664,8.664-8.664 s8.664,3.879,8.664,8.664v136.724C394.924,308.889,391.044,312.768,386.26,312.768z"/> <path d="M414.15,209.526c-4.786,0-8.664,3.879-8.664,8.664v231.908c-22.815,3.699-40.877,21.758-44.576,44.575h-7.899 c-4.786,0-8.664,3.879-8.664,8.664c0,4.785,3.878,8.664,8.664,8.664h15.868c4.786,0,8.664-3.879,8.664-8.664 c0-20.185,16.422-36.606,36.606-36.606c4.786,0,8.664-3.879,8.664-8.664V218.19C422.814,213.404,418.936,209.526,414.15,209.526z"/> <path d="M258.459,195.94c-4.786,0-8.664,3.879-8.664,8.664v164.444c0,22.912,18.642,41.553,41.554,41.553 s41.553-18.64,41.553-41.553v-58.555c0-4.785-3.878-8.664-8.664-8.664s-8.664,3.879-8.664,8.664v58.555 c0,13.358-10.867,24.225-24.225,24.225c-13.358,0-24.226-10.867-24.226-24.225V204.604 C267.123,199.819,263.244,195.94,258.459,195.94z"/> <path d="M324.236,287.213c4.786,0,8.664-3.879,8.664-8.664v-73.945c0-4.785-3.878-8.664-8.664-8.664 c-4.786,0-8.664,3.879-8.664,8.664v73.945C315.572,283.333,319.452,287.213,324.236,287.213z"/> <path d="M356.832,195.937c-4.786,0-8.664,3.879-8.664,8.664v164.439c0,11.098,4.323,21.533,12.165,29.376 c7.837,7.853,18.274,12.178,29.389,12.178c4.786,0,8.664-3.879,8.664-8.664c0-4.785-3.878-8.664-8.664-8.664 c-6.478,0-12.561-2.518-17.129-7.098c-4.577-4.576-7.098-10.66-7.098-17.129V204.601 C365.496,199.816,361.618,195.937,356.832,195.937z"/> <path d="M217.194,369.041c0,13.359-10.862,24.227-24.214,24.227c-4.786,0-8.664,3.879-8.664,8.664c0,4.785,3.878,8.664,8.664,8.664 c22.907,0,41.542-18.642,41.542-41.555v-22.77c0-4.785-3.878-8.664-8.664-8.664c-4.786,0-8.664,3.879-8.664,8.664V369.041z"/> <path d="M225.858,322.991c4.786,0,8.664-3.879,8.664-8.664V204.602c0-4.785-3.878-8.664-8.664-8.664 c-4.786,0-8.664,3.879-8.664,8.664v109.724C217.194,319.111,221.073,322.991,225.858,322.991z"/> <path d="M439.689,101.606c0-22.921-15.261-42.661-36.633-48.888c-0.668-19.976-17.127-36.022-37.262-36.022 c-4.227,0-8.397,0.722-12.347,2.116C343.852,7.051,329.327,0,313.927,0c-7.88,0-15.587,1.81-22.574,5.272 C284.364,1.81,276.652,0,268.764,0c-15.4,0-29.925,7.051-39.52,18.813c-3.95-1.395-8.119-2.116-12.347-2.116 c-20.14,0-36.602,16.05-37.265,36.031c-5.48,1.607-10.687,4.134-15.348,7.479c-3.888,2.789-4.78,8.202-1.992,12.09 c2.789,3.888,8.204,4.779,12.09,1.99c4.571-3.278,9.931-5.366,15.502-6.036c2.395-0.288,4.561-1.562,5.978-3.513 c1.416-1.952,1.955-4.406,1.487-6.773c-0.271-1.37-0.409-2.711-0.409-3.984c0-11.003,8.953-19.956,19.956-19.956 c3.751,0,7.425,1.07,10.621,3.094c1.992,1.26,4.412,1.655,6.699,1.093c2.288-0.561,4.251-2.032,5.432-4.072 c6.006-10.369,17.162-16.811,29.115-16.811c6.387,0,12.594,1.794,17.95,5.189c2.831,1.795,6.446,1.795,9.277,0 c5.356-3.395,11.558-5.189,17.936-5.189c11.953,0,23.109,6.441,29.114,16.811c1.181,2.04,3.142,3.51,5.431,4.072 c2.29,0.563,4.709,0.168,6.699-1.093c3.2-2.024,6.872-3.094,10.623-3.094c11.003,0,19.955,8.953,19.955,19.956 c0,1.33-0.133,2.648-0.395,3.92c-0.49,2.374,0.038,4.844,1.454,6.811c1.416,1.967,3.59,3.251,5.997,3.54 c16.849,2.026,29.555,16.366,29.555,33.355c0,8.993-3.492,17.364-9.7,23.624H170.037c-6.203-6.261-9.692-14.633-9.692-23.624 c0-2.767,0.335-5.515,0.997-8.17c1.158-4.644-1.668-9.346-6.312-10.502c-4.636-1.156-9.346,1.669-10.502,6.311 c-1.003,4.025-1.512,8.184-1.512,12.361c0,14.646,6.105,28.204,16.866,37.865v30.567c-9.304-8.405-21.624-13.532-35.121-13.532 c-2.267,0-4.494,0.161-6.685,0.441c-0.271,0.022-0.538,0.057-0.802,0.102c-25.386,3.646-44.962,25.528-44.962,51.906v75.888 c0,29.333,17.3,56.028,44.075,68.009l43.302,19.377c-1.765,16.389-15.678,29.193-32.528,29.193c-4.786,0-8.664,3.879-8.664,8.664 c0,4.785,3.878,8.664,8.664,8.664c12.503,0,23.941-4.619,32.721-12.226v51.541c0,4.785,3.878,8.664,8.664,8.664 c20.185,0,36.606,16.421,36.606,36.606c0,4.785,3.878,8.664,8.664,8.664H324.13c4.786,0,8.664-3.879,8.664-8.664 c0-4.785-3.878-8.664-8.664-8.664H221.784c-3.699-22.815-21.76-40.876-44.575-44.575v-307.54h228.275v46.751 c0,4.785,3.878,8.664,8.664,8.664c4.786,0,8.664-3.879,8.664-8.664v-49.838C433.582,129.813,439.689,116.254,439.689,101.606z M159.883,208.955v144.378l-32.454-14.523V173.947C145.551,175.314,159.883,190.488,159.883,208.955z M89.64,284.843v-75.888 c0-14.134,8.397-26.335,20.46-31.901v151.603C97.349,317.955,89.64,301.99,89.64,284.843z"/> <path d="M203.178,438.166h176.339c4.786,0,8.664-3.879,8.664-8.664s-3.878-8.664-8.664-8.664H203.178 c-4.786,0-8.664,3.879-8.664,8.664S198.393,438.166,203.178,438.166z"/> </g>
</svg>